<?xml version="1.0" standalone="no"?><svg xmlns="http://www.w3.org/2000/svg" viewBox="0 0 1440 320"><path fill="#0099ff" fill-opacity="1" d="M0,96L21.8,117.3C43.6,139,87,181,131,170.7C174.5,160,218,96,262,85.3C305.5,75,349,117,393,138.7C436.4,160,480,160,524,170.7C567.3,181,611,203,655,213.3C698.2,224,742,224,785,213.3C829.1,203,873,181,916,154.7C960,128,1004,96,1047,117.3C1090.9,139,1135,213,1178,213.3C1221.8,213,1265,139,1309,138.7C1352.7,139,1396,213,1418,250.7L1440,288L1440,0L1418.2,0C1396.4,0,1353,0,1309,0C1265.5,0,1222,0,1178,0C1134.5,0,1091,0,1047,0C1003.6,0,960,0,916,0C872.7,0,829,0,785,0C741.8,0,698,0,655,0C610.9,0,567,0,524,0C480,0,436,0,393,0C349.1,0,305,0,262,0C218.2,0,175,0,131,0C87.3,0,44,0,22,0L0,0Z"></path></svg>